<svg width="24" height="24" viewBox="0 0 24 24" fill="none" xmlns="http://www.w3.org/2000/svg">
<path d="M0 12C0 8.27247 0 6.4087 0.608964 4.93853C1.42092 2.97831 2.97831 1.42092 4.93853 0.608964C6.4087 0 8.27247 0 12 0V0C15.7275 0 17.5913 0 19.0615 0.608964C21.0217 1.42092 22.5791 2.97831 23.391 4.93853C24 6.4087 24 8.27247 24 12V12C24 15.7275 24 17.5913 23.391 19.0615C22.5791 21.0217 21.0217 22.5791 19.0615 23.391C17.5913 24 15.7275 24 12 24V24C8.27247 24 6.4087 24 4.93853 23.391C2.97831 22.5791 1.42092 21.0217 0.608964 19.0615C0 17.5913 0 15.7275 0 12V12Z" fill="#E3F5FF"/>
<path d="M17 13.0003H18C18.1326 13.0003 18.2598 12.9476 18.3536 12.8538C18.4473 12.7601 18.5 12.6329 18.5 12.5003C18.5 12.3677 18.4473 12.2405 18.3536 12.1467C18.2598 12.053 18.1326 12.0003 18 12.0003H17V11.0003H18C18.1326 11.0003 18.2598 10.9476 18.3536 10.8538C18.4473 10.7601 18.5 10.6329 18.5 10.5003C18.5 10.3677 18.4473 10.2405 18.3536 10.1467C18.2598 10.053 18.1326 10.0003 18 10.0003H16.975C16.8646 8.90287 16.3933 7.87308 15.635 7.07215L16.8538 5.85403C16.9002 5.80757 16.9371 5.75242 16.9622 5.69173C16.9873 5.63103 17.0003 5.56598 17.0003 5.50028C17.0003 5.43458 16.9873 5.36953 16.9622 5.30883C16.9371 5.24813 16.9002 5.19298 16.8538 5.14653C16.8073 5.10007 16.7521 5.06322 16.6914 5.03808C16.6308 5.01294 16.5657 5 16.5 5C16.4343 5 16.3692 5.01294 16.3086 5.03808C16.2479 5.06322 16.1927 5.10007 16.1462 5.14653L14.8781 6.41528C14.0365 5.81992 13.0309 5.50021 12 5.50021C10.9691 5.50021 9.96351 5.81992 9.12187 6.41528L7.85375 5.14653C7.75993 5.05271 7.63268 5 7.5 5C7.36732 5 7.24007 5.05271 7.14625 5.14653C7.05243 5.24035 6.99972 5.3676 6.99972 5.50028C6.99972 5.63296 7.05243 5.76021 7.14625 5.85403L8.365 7.07215C7.6067 7.87308 7.13544 8.90287 7.025 10.0003H6C5.86739 10.0003 5.74021 10.053 5.64645 10.1467C5.55268 10.2405 5.5 10.3677 5.5 10.5003C5.5 10.6329 5.55268 10.7601 5.64645 10.8538C5.74021 10.9476 5.86739 11.0003 6 11.0003H7V12.0003H6C5.86739 12.0003 5.74021 12.053 5.64645 12.1467C5.55268 12.2405 5.5 12.3677 5.5 12.5003C5.5 12.6329 5.55268 12.7601 5.64645 12.8538C5.74021 12.9476 5.86739 13.0003 6 13.0003H7V13.5003C7 13.669 7.00875 13.8359 7.025 14.0003H6C5.86739 14.0003 5.74021 14.053 5.64645 14.1467C5.55268 14.2405 5.5 14.3677 5.5 14.5003C5.5 14.6329 5.55268 14.7601 5.64645 14.8538C5.74021 14.9476 5.86739 15.0003 6 15.0003H7.23C7.54904 16.0155 8.18366 16.9024 9.04155 17.5321C9.89944 18.1617 10.9358 18.5012 12 18.5012C13.0642 18.5012 14.1006 18.1617 14.9584 17.5321C15.8163 16.9024 16.451 16.0155 16.77 15.0003H18C18.1326 15.0003 18.2598 14.9476 18.3536 14.8538C18.4473 14.7601 18.5 14.6329 18.5 14.5003C18.5 14.3677 18.4473 14.2405 18.3536 14.1467C18.2598 14.053 18.1326 14.0003 18 14.0003H16.975C16.9913 13.8359 17 13.669 17 13.5003V13.0003ZM12 6.50028C12.9738 6.50149 13.9138 6.85752 14.6441 7.50174C15.3744 8.14596 15.8448 9.03422 15.9675 10.0003H8.03C8.15271 9.03379 8.62356 8.14519 9.35435 7.50092C10.0851 6.85664 11.0258 6.50088 12 6.50028ZM12.5 17.4678V12.5003C12.5 12.3677 12.4473 12.2405 12.3536 12.1467C12.2598 12.053 12.1326 12.0003 12 12.0003C11.8674 12.0003 11.7402 12.053 11.6464 12.1467C11.5527 12.2405 11.5 12.3677 11.5 12.5003V17.4678C10.5339 17.3451 9.64568 16.8746 9.00146 16.1444C8.35724 15.4141 8.00121 14.4741 8 13.5003V11.0003H16V13.5003C15.9988 14.4741 15.6428 15.4141 14.9985 16.1444C14.3543 16.8746 13.4661 17.3451 12.5 17.4678Z" fill="#1C1C1C"/>
</svg>
