<svg width="24" height="24" viewBox="0 0 24 24" fill="none" xmlns="http://www.w3.org/2000/svg">
<path d="M0 12C0 8.27247 0 6.4087 0.608964 4.93853C1.42092 2.97831 2.97831 1.42092 4.93853 0.608964C6.4087 0 8.27247 0 12 0V0C15.7275 0 17.5913 0 19.0615 0.608964C21.0217 1.42092 22.5791 2.97831 23.391 4.93853C24 6.4087 24 8.27247 24 12V12C24 15.7275 24 17.5913 23.391 19.0615C22.5791 21.0217 21.0217 22.5791 19.0615 23.391C17.5913 24 15.7275 24 12 24V24C8.27247 24 6.4087 24 4.93853 23.391C2.97831 22.5791 1.42092 21.0217 0.608964 19.0615C0 17.5913 0 15.7275 0 12V12Z" fill="#E5ECF6"/>
<path d="M18.431 17.2497C17.4791 15.6041 16.0122 14.4241 14.3003 13.8647C15.1471 13.3607 15.805 12.5925 16.173 11.6784C16.5409 10.7642 16.5987 9.7545 16.3372 8.80435C16.0758 7.85419 15.5098 7.01612 14.7259 6.41883C13.9421 5.82153 12.9839 5.49805 11.9985 5.49805C11.013 5.49805 10.0548 5.82153 9.27098 6.41883C8.48716 7.01612 7.92108 7.85419 7.65967 8.80435C7.39826 9.7545 7.45598 10.7642 7.82395 11.6784C8.19193 12.5925 8.84982 13.3607 9.69659 13.8647C7.98471 14.4235 6.51784 15.6035 5.56596 17.2497C5.53105 17.3067 5.5079 17.37 5.49787 17.436C5.48783 17.502 5.49112 17.5694 5.50754 17.6341C5.52396 17.6988 5.55317 17.7596 5.59346 17.8128C5.63374 17.8661 5.68428 17.9107 5.7421 17.9441C5.79992 17.9775 5.86384 17.999 5.93009 18.0073C5.99634 18.0156 6.06358 18.0105 6.12785 17.9924C6.19211 17.9743 6.2521 17.9435 6.30427 17.9018C6.35643 17.8601 6.39972 17.8084 6.43159 17.7497C7.60909 15.7147 9.69034 14.4997 11.9985 14.4997C14.3066 14.4997 16.3878 15.7147 17.5653 17.7497C17.5972 17.8084 17.6405 17.8601 17.6927 17.9018C17.7448 17.9435 17.8048 17.9743 17.8691 17.9924C17.9333 18.0105 18.0006 18.0156 18.0668 18.0073C18.1331 17.999 18.197 17.9775 18.2548 17.9441C18.3126 17.9107 18.3632 17.8661 18.4035 17.8128C18.4438 17.7596 18.473 17.6988 18.4894 17.6341C18.5058 17.5694 18.5091 17.502 18.4991 17.436C18.489 17.37 18.4659 17.3067 18.431 17.2497ZM8.49846 9.99975C8.49846 9.30751 8.70373 8.63082 9.08832 8.05525C9.4729 7.47968 10.0195 7.03108 10.6591 6.76617C11.2986 6.50126 12.0023 6.43195 12.6813 6.567C13.3602 6.70205 13.9839 7.03539 14.4733 7.52487C14.9628 8.01436 15.2962 8.638 15.4312 9.31693C15.5663 9.99586 15.4969 10.6996 15.232 11.3391C14.9671 11.9787 14.5185 12.5253 13.943 12.9099C13.3674 13.2945 12.6907 13.4997 11.9985 13.4997C11.0705 13.4988 10.1808 13.1297 9.52468 12.4735C8.86852 11.8174 8.49945 10.9277 8.49846 9.99975Z" fill="#1C1C1C"/>
</svg>
