<svg width="16" height="16" viewBox="0 0 16 16" fill="none" xmlns="http://www.w3.org/2000/svg">
<path d="M14.3516 14.3559C14.2582 14.4478 14.1326 14.4994 14.0016 14.4996C13.8688 14.499 13.7413 14.4476 13.6453 14.3559L10.9453 11.6496C9.80818 12.6047 8.34621 13.084 6.86431 12.9874C5.38242 12.8908 3.99502 12.2259 2.99147 11.1313C1.98792 10.0366 1.44571 8.59681 1.47792 7.11212C1.51013 5.62743 2.11428 4.21249 3.16436 3.16241C4.21444 2.11233 5.62938 1.50818 7.11407 1.47597C8.59876 1.44375 10.0386 1.98596 11.1332 2.98951C12.2278 3.99306 12.8928 5.38046 12.9894 6.86236C13.0859 8.34426 12.6067 9.80623 11.6516 10.9434L14.3516 13.6434C14.3988 13.6899 14.4363 13.7453 14.4619 13.8065C14.4875 13.8677 14.5007 13.9333 14.5007 13.9996C14.5007 14.0659 14.4875 14.1316 14.4619 14.1927C14.4363 14.2539 14.3988 14.3093 14.3516 14.3559ZM7.25156 11.9996C8.19102 11.9996 9.10939 11.721 9.89052 11.1991C10.6717 10.6772 11.2805 9.9353 11.64 9.06736C11.9995 8.19941 12.0936 7.24434 11.9103 6.32293C11.727 5.40152 11.2746 4.55515 10.6103 3.89085C9.94602 3.22655 9.09965 2.77416 8.17824 2.59088C7.25683 2.4076 6.30176 2.50166 5.43382 2.86118C4.56587 3.2207 3.82402 3.82952 3.30208 4.61065C2.78014 5.39178 2.50156 6.31015 2.50156 7.24961C2.50322 8.50888 3.00419 9.7161 3.89463 10.6065C4.78507 11.497 5.99229 11.998 7.25156 11.9996Z" fill="#1C1C1C" fill-opacity="0.2"/>
</svg>
