<svg width="20" height="20" viewBox="0 0 20 20" fill="none" xmlns="http://www.w3.org/2000/svg">
<path d="M18.125 11.8754V17.0316C18.125 17.156 18.0756 17.2752 17.9877 17.3631C17.8998 17.451 17.7806 17.5004 17.6562 17.5004H12.5C11.3365 17.5007 10.2016 17.1402 9.25158 16.4686C8.30154 15.797 7.58313 14.8473 7.19531 13.7504H7.5C8.99184 13.7504 10.4226 13.1578 11.4775 12.1029C12.5324 11.048 13.125 9.61723 13.125 8.12539C13.1254 7.49 13.0179 6.85915 12.807 6.25977C14.2434 6.33828 15.5951 6.96413 16.5842 8.00862C17.5734 9.05311 18.1247 10.4369 18.125 11.8754Z" fill="#1C1C1C" fill-opacity="0.1"/>
<path d="M13.2477 5.67198C12.682 4.34773 11.6765 3.25941 10.401 2.59102C9.12553 1.92263 7.65839 1.71518 6.2476 2.00373C4.83682 2.29228 3.56895 3.05913 2.65834 4.17465C1.74773 5.29016 1.25025 6.68589 1.25 8.12588V13.2821C1.25 13.5722 1.36523 13.8504 1.57035 14.0555C1.77547 14.2607 2.05367 14.3759 2.34375 14.3759H6.77109C7.25882 15.4897 8.06026 16.4374 9.07758 17.1033C10.0949 17.7692 11.2841 18.1245 12.5 18.1259H17.6562C17.9463 18.1259 18.2245 18.0107 18.4296 17.8055C18.6348 17.6004 18.75 17.3222 18.75 17.0321V11.8759C18.7497 10.348 18.1897 8.87308 17.1759 7.72998C16.1621 6.58688 14.7646 5.85476 13.2477 5.67198ZM2.5 8.12588C2.5 7.13698 2.79324 6.17028 3.34265 5.34803C3.89206 4.52579 4.67295 3.88493 5.58658 3.50649C6.50021 3.12805 7.50555 3.02903 8.47545 3.22196C9.44536 3.41488 10.3363 3.89109 11.0355 4.59035C11.7348 5.28961 12.211 6.18053 12.4039 7.15043C12.5969 8.12034 12.4978 9.12567 12.1194 10.0393C11.741 10.9529 11.1001 11.7338 10.2779 12.2832C9.4556 12.8326 8.48891 13.1259 7.5 13.1259H2.5V8.12588ZM17.5 16.8759H12.5C11.6159 16.8749 10.7477 16.64 9.98375 16.195C9.21976 15.75 8.5871 15.1108 8.15 14.3423C9.00603 14.2535 9.83445 13.9886 10.5833 13.5645C11.3321 13.1403 11.9852 12.5659 12.5015 11.8773C13.0178 11.1888 13.3862 10.4009 13.5836 9.56324C13.7809 8.72555 13.803 7.85611 13.6484 7.00948C14.7447 7.2682 15.7216 7.88953 16.4206 8.77279C17.1197 9.65604 17.5 10.7495 17.5 11.8759V16.8759Z" fill="#1C1C1C"/>
</svg>
