<svg width="20" height="20" viewBox="0 0 20 20" fill="none" xmlns="http://www.w3.org/2000/svg">
<path d="M13.125 11.25C13.125 11.8681 12.9417 12.4723 12.5983 12.9862C12.255 13.5001 11.7669 13.9006 11.1959 14.1371C10.6249 14.3736 9.99653 14.4355 9.39034 14.315C8.78415 14.1944 8.22733 13.8967 7.79029 13.4597C7.35325 13.0227 7.05563 12.4658 6.93505 11.8597C6.81447 11.2535 6.87635 10.6251 7.11288 10.0541C7.3494 9.48309 7.74994 8.99504 8.26384 8.65166C8.77775 8.30828 9.38193 8.125 10 8.125C10.8288 8.125 11.6237 8.45424 12.2097 9.04029C12.7958 9.62634 13.125 10.4212 13.125 11.25ZM5 4.375C4.50555 4.375 4.0222 4.52162 3.61108 4.79633C3.19995 5.07103 2.87952 5.46148 2.6903 5.91829C2.50108 6.37511 2.45157 6.87777 2.54804 7.36273C2.6445 7.84768 2.8826 8.29314 3.23223 8.64277C3.58187 8.9924 4.02732 9.2305 4.51228 9.32696C4.99723 9.42343 5.49989 9.37392 5.95671 9.1847C6.41353 8.99548 6.80397 8.67505 7.07868 8.26393C7.35338 7.8528 7.5 7.36945 7.5 6.875C7.5 6.21196 7.23661 5.57607 6.76777 5.10723C6.29893 4.63839 5.66304 4.375 5 4.375ZM15 4.375C14.5055 4.375 14.0222 4.52162 13.6111 4.79633C13.2 5.07103 12.8795 5.46148 12.6903 5.91829C12.5011 6.37511 12.4516 6.87777 12.548 7.36273C12.6445 7.84768 12.8826 8.29314 13.2322 8.64277C13.5819 8.9924 14.0273 9.2305 14.5123 9.32696C14.9972 9.42343 15.4999 9.37392 15.9567 9.1847C16.4135 8.99548 16.804 8.67505 17.0787 8.26393C17.3534 7.8528 17.5 7.36945 17.5 6.875C17.5 6.21196 17.2366 5.57607 16.7678 5.10723C16.2989 4.63839 15.663 4.375 15 4.375Z" fill="white" fill-opacity="0.1"/>
<path d="M19.1252 11.7493C19.0596 11.7986 18.9849 11.8344 18.9053 11.8548C18.8258 11.8751 18.7431 11.8797 18.6618 11.868C18.5806 11.8564 18.5024 11.8289 18.4318 11.7871C18.3612 11.7453 18.2995 11.69 18.2502 11.6243C17.8735 11.118 17.3832 10.7071 16.8187 10.4249C16.2542 10.1426 15.6313 9.99688 15.0002 9.99933C14.8345 9.99933 14.6755 9.93348 14.5583 9.81627C14.4411 9.69906 14.3752 9.54009 14.3752 9.37433C14.3752 9.20857 14.4411 9.04959 14.5583 8.93238C14.6755 8.81517 14.8345 8.74933 15.0002 8.74933C15.3509 8.74929 15.6946 8.65092 15.9921 8.46537C16.2897 8.27983 16.5293 8.01455 16.6836 7.69967C16.838 7.38479 16.901 7.03293 16.8654 6.68406C16.8298 6.33519 16.6971 6.00329 16.4823 5.72606C16.2676 5.44883 15.9794 5.23739 15.6505 5.11574C15.3216 4.9941 14.9651 4.96713 14.6217 5.03791C14.2782 5.10868 13.9615 5.27435 13.7074 5.51612C13.4534 5.75788 13.2723 6.06603 13.1846 6.40558C13.1641 6.48509 13.1281 6.55978 13.0787 6.62538C13.0293 6.69099 12.9675 6.74623 12.8968 6.78794C12.8261 6.82966 12.7478 6.85703 12.6665 6.8685C12.5852 6.87997 12.5024 6.87531 12.4229 6.85479C12.3434 6.83428 12.2687 6.7983 12.2031 6.74891C12.1375 6.69953 12.0822 6.6377 12.0405 6.56697C11.9988 6.49624 11.9714 6.41798 11.96 6.33667C11.9485 6.25536 11.9532 6.17259 11.9737 6.09308C12.0954 5.62223 12.3253 5.18628 12.6451 4.81991C12.9649 4.45355 13.3658 4.16688 13.8159 3.98272C14.266 3.79857 14.7529 3.722 15.2378 3.75912C15.7227 3.79623 16.1922 3.94601 16.609 4.19652C17.0259 4.44704 17.3785 4.79138 17.6388 5.20215C17.8991 5.61292 18.06 6.07878 18.1086 6.56267C18.1572 7.04655 18.0922 7.5351 17.9188 7.98944C17.7454 8.44378 17.4683 8.85138 17.1096 9.17979C17.9595 9.54776 18.6982 10.1317 19.2526 10.8735C19.3018 10.9394 19.3376 11.0143 19.3578 11.0939C19.3781 11.1736 19.3824 11.2565 19.3706 11.3379C19.3588 11.4192 19.331 11.4974 19.2889 11.568C19.2468 11.6386 19.1912 11.7002 19.1252 11.7493ZM14.9159 16.5618C14.9595 16.633 14.9884 16.7121 15.001 16.7947C15.0135 16.8772 15.0094 16.9614 14.9889 17.0423C14.9684 17.1232 14.9319 17.1991 14.8815 17.2657C14.8311 17.3322 14.768 17.388 14.6957 17.4298C14.6234 17.4715 14.5435 17.4984 14.4607 17.5087C14.3779 17.5191 14.2938 17.5128 14.2135 17.4901C14.1332 17.4675 14.0582 17.429 13.993 17.3769C13.9278 17.3248 13.8737 17.2602 13.8338 17.1868C13.4401 16.5203 12.8794 15.968 12.207 15.5843C11.5347 15.2006 10.774 14.9988 9.99985 14.9988C9.22573 14.9988 8.46499 15.2006 7.79266 15.5843C7.12033 15.968 6.55962 16.5203 6.16586 17.1868C6.12679 17.2615 6.07301 17.3275 6.00777 17.3809C5.94252 17.4343 5.86715 17.4739 5.7862 17.4974C5.70524 17.5209 5.62037 17.5277 5.53669 17.5176C5.45302 17.5074 5.37226 17.4804 5.29928 17.4382C5.2263 17.396 5.16261 17.3395 5.11204 17.2721C5.06147 17.2047 5.02506 17.1277 5.005 17.0458C4.98495 16.9639 4.98166 16.8789 4.99535 16.7957C5.00903 16.7125 5.03939 16.633 5.08461 16.5618C5.69055 15.5207 6.61445 14.7014 7.72055 14.2243C7.09815 13.7478 6.64073 13.0882 6.41258 12.3383C6.18443 11.5883 6.19703 10.7857 6.44861 10.0433C6.70018 9.3009 7.17808 8.65599 7.81513 8.19923C8.45219 7.74247 9.21636 7.49682 10.0002 7.49682C10.7841 7.49682 11.5483 7.74247 12.1853 8.19923C12.8224 8.65599 13.3003 9.3009 13.5519 10.0433C13.8034 10.7857 13.816 11.5883 13.5879 12.3383C13.3597 13.0882 12.9023 13.7478 12.2799 14.2243C13.386 14.7014 14.3099 15.5207 14.9159 16.5618ZM10.0002 13.7493C10.4947 13.7493 10.978 13.6027 11.3892 13.328C11.8003 13.0533 12.1207 12.6628 12.3099 12.206C12.4992 11.7492 12.5487 11.2466 12.4522 10.7616C12.3557 10.2766 12.1176 9.83119 11.768 9.48156C11.4184 9.13193 10.9729 8.89383 10.488 8.79736C10.003 8.7009 9.50034 8.75041 9.04353 8.93963C8.58671 9.12885 8.19627 9.44928 7.92156 9.8604C7.64686 10.2715 7.50024 10.7549 7.50024 11.2493C7.50024 11.9124 7.76363 12.5483 8.23247 13.0171C8.70131 13.4859 9.3372 13.7493 10.0002 13.7493ZM5.62524 9.37433C5.62524 9.20857 5.55939 9.04959 5.44218 8.93238C5.32497 8.81517 5.166 8.74933 5.00024 8.74933C4.64956 8.74929 4.30591 8.65092 4.00834 8.46537C3.71076 8.27983 3.47119 8.01455 3.31682 7.69967C3.16246 7.38479 3.09949 7.03293 3.13508 6.68406C3.17066 6.33519 3.30337 6.00329 3.51813 5.72606C3.73289 5.44883 4.02109 5.23739 4.35 5.11574C4.67891 4.9941 5.03534 4.96713 5.3788 5.03791C5.72227 5.10868 6.039 5.27435 6.29303 5.51612C6.54706 5.75788 6.72819 6.06603 6.81586 6.40558C6.8573 6.56616 6.96083 6.7037 7.10368 6.78794C7.24653 6.87219 7.417 6.89623 7.57758 6.85479C7.73816 6.81335 7.8757 6.70982 7.95995 6.56697C8.04419 6.42412 8.06824 6.25366 8.0268 6.09308C7.90511 5.62223 7.67522 5.18628 7.3554 4.81991C7.03559 4.45355 6.63468 4.16688 6.18458 3.98272C5.73447 3.79857 5.2476 3.722 4.7627 3.75912C4.2778 3.79623 3.80826 3.94601 3.39143 4.19652C2.9746 4.44704 2.62199 4.79138 2.36166 5.20215C2.10133 5.61292 1.94046 6.07878 1.89185 6.56267C1.84325 7.04655 1.90825 7.5351 2.08168 7.98944C2.25511 8.44378 2.53219 8.85138 2.89086 9.17979C2.04186 9.54811 1.30392 10.132 0.750237 10.8735C0.650677 11.0062 0.607874 11.1729 0.631242 11.337C0.654611 11.5012 0.742238 11.6494 0.874846 11.7489C1.00745 11.8485 1.17418 11.8913 1.33835 11.8679C1.50252 11.8446 1.65068 11.7569 1.75024 11.6243C2.12695 11.118 2.61728 10.7071 3.18177 10.4249C3.74625 10.1426 4.36912 9.99688 5.00024 9.99933C5.166 9.99933 5.32497 9.93348 5.44218 9.81627C5.55939 9.69906 5.62524 9.54009 5.62524 9.37433Z" fill="white"/>
</svg>
